<svg width="593" height="772" viewBox="0 0 593 772" fill="none" xmlns="http://www.w3.org/2000/svg">
<g style="mix-blend-mode:darken">
<path d="M592.593 771.93L350.878 132.554C338.402 157.505 314.49 158.544 304.094 155.945L592.593 771.93Z" fill="#434F7A" fill-opacity="0.3"/>
<path d="M3.05176e-05 771.93L241.716 132.554C254.191 157.505 278.103 158.545 288.499 155.945L3.05176e-05 771.93Z" fill="#434F7A" fill-opacity="0.3"/>
<path fill-rule="evenodd" clip-rule="evenodd" d="M311.891 0L280.702 0L280.702 49.4458C262.531 55.8682 249.513 73.1975 249.513 93.5674C249.513 119.405 270.459 140.351 296.297 140.351C322.134 140.351 343.08 119.405 343.08 93.5674C343.08 73.1974 330.062 55.8682 311.891 49.4458L311.891 0Z" fill="#434F7A" fill-opacity="0.3"/>
</g>
</svg>
